<?xml version="1.0" standalone="no"?>
<!DOCTYPE svg PUBLIC "-//W3C//DTD SVG 20010904//EN" "http://www.w3.org/TR/2001/REC-SVG-20010904/DTD/svg10.dtd">
<!-- Created using Krita: https://krita.org -->
<svg xmlns="http://www.w3.org/2000/svg" 
    xmlns:xlink="http://www.w3.org/1999/xlink"
    xmlns:krita="http://krita.org/namespaces/svg/krita"
    xmlns:sodipodi="http://sodipodi.sourceforge.net/DTD/sodipodi-0.dtd"
    width="100.8pt"
    height="220.8pt"
    viewBox="0 0 100.8 220.8">
<defs/>
<path id="shape0" transform="matrix(0.999999969724626 0 0 0.999999969724626 50.3871037897112 -14.2803290159999)" fill="#f4a08a" fill-rule="evenodd" stroke="#f4a08a" stroke-width="2.4" stroke-linecap="square" stroke-linejoin="bevel" d="M61.6647 65.5488C39.9664 84.1456 -15.857 33.8009 4.32252 10.9666C20.801 -7.67988 60.292 -1.24302 71.2828 20.4338C76.6074 30.9354 80.664 46.7937 72.2532 57.0736C71.7944 57.6344 59.9179 68.043 59.9179 67.0584"/><path id="shape1" transform="matrix(0.999999969724626 0 0 0.999999969724626 -21.6240230332358 166.865184348088)" fill="#f4a08a" fill-rule="evenodd" stroke="#f4a08a" stroke-width="2.4" stroke-linecap="square" stroke-linejoin="bevel" d="M1.006 26.908C-2.44419 25.1829 3.99067 13.1895 5.18967 11.4455C29.1549 -23.413 80.3074 29.8087 64.5374 58.4798C56.7479 72.6418 18.5729 67.81 10.0634 57.8328C5.10961 52.0246 2.15045 43.5269 1.30791 35.9439C0.890272 32.185 -0.620657 21.2178 1.07069 24.6005"/><path id="shape2" transform="matrix(0.999999969724626 0 0 0.999999969724626 57.898380169632 92.7906727749387)" fill="#f4a08a" fill-rule="evenodd" stroke="#f4a08a" stroke-width="2.4" stroke-linecap="square" stroke-linejoin="bevel" d="M31.554 72.6185C-7.23803 72.6185 -12.3434 2.49404 27.9139 0.0541529C64.1089 -2.13953 75.7367 62.9953 40.7669 71.7378C38.2513 72.7089 26.6989 73.7548 26.4649 70.0781"/>
</svg>
