<?xml version="1.0" standalone="no"?>
<!DOCTYPE svg PUBLIC "-//W3C//DTD SVG 20010904//EN" "http://www.w3.org/TR/2001/REC-SVG-20010904/DTD/svg10.dtd">
<!-- Created using Krita: https://krita.org -->
<svg xmlns="http://www.w3.org/2000/svg"
    style="opacity: 0.35"
    xmlns:xlink="http://www.w3.org/1999/xlink"
    xmlns:krita="http://krita.org/namespaces/svg/krita"
    xmlns:sodipodi="http://sodipodi.sourceforge.net/DTD/sodipodi-0.dtd"
    width="460.8pt"
    height="259.2pt"
    viewBox="0 0 460.8 259.2">
<defs/>
<ellipse id="shape0" transform="matrix(0.999999952904974 0 0 0.999999952904974 197.54467999674 14.7761282557312)" rx="24.24" ry="23.76" cx="24.24" cy="23.76" fill="#cff4fe" fill-rule="evenodd" stroke="#cff4fe" stroke-width="2.4" stroke-linecap="square" stroke-linejoin="bevel"/><ellipse id="shape011" transform="matrix(0.999999717429878 0 0 0.999999717429878 370.478678801185 152.110258768363)" rx="47.04" ry="43.2" cx="47.04" cy="43.2" fill="#01242d" fill-rule="evenodd" stroke="#01242d" stroke-width="2.4" stroke-linecap="square" stroke-linejoin="bevel"/><path id="shape11" transform="matrix(0.999999717429878 0 0 0.999999717429878 366.078613229534 157.515233528028)" fill="#01242d" fill-rule="evenodd" stroke="#01242d" stroke-width="2.4" stroke-linecap="square" stroke-linejoin="bevel" d="M10.6633 30.7735L0 0L38.4308 3.43519Z"/><path id="shape21" transform="matrix(0.999999717429878 0 0 0.999999717429878 422.007233116528 129.634469137548)" fill="#01242d" fill-rule="evenodd" stroke="#01242d" stroke-width="2.4" stroke-linecap="square" stroke-linejoin="bevel" d="M0 23.0143L15.3151 0L25.4774 31.8527Z"/><path id="shape31" transform="matrix(0.999999717429878 0 0 0.999999717429878 369.299103852628 209.830178394567)" fill="#01242d" fill-rule="evenodd" stroke="#01242d" stroke-width="2.4" stroke-linecap="square" stroke-linejoin="bevel" d="M1.82492 0L0 11.2359L10.5201 20.7184L29.5209 25.8712Z"/><path id="shape41" transform="matrix(0.999999717429878 0 0 0.999999717429878 341.335670888865 209.15653891697)" fill="#01242d" fill-rule="evenodd" stroke="#01242d" stroke-width="2.4" stroke-linecap="square" stroke-linejoin="bevel" d="M5.99518 11.3432L29.1109 0L49.4714 8.40904L43.6745 23.0801L14.261 39.111C3.51989 32.734 -6.94422 25.0017 5.99518 11.3432Z"/><path id="shape51" transform="matrix(0.999999717429878 0 0 0.999999717429878 36.2575890676538 201.146229905333)" fill="#01242d" fill-rule="evenodd" stroke="#01242d" stroke-width="2.4" stroke-linecap="square" stroke-linejoin="bevel" d="M242.607 86.4082C-44.3675 171.116 -53.9083 94.3233 95.2625 57.5737C204.513 50.7787 202.99 39.6886 266.158 42.6592C300.823 39.7503 329.989 46.2683 352.426 40.6589C381.724 33.3342 403.355 -3.66334 436.015 0.295516C456.362 2.76179 493.84 7.67844 506.607 19.6882C537.21 48.4753 541.31 64.3913 481.647 86.8882C449.015 99.1922 410.631 101.254 377.967 83.0482C370.087 78.6562 315.949 85.4482 306.927 85.4482"/><circle id="shape61" transform="matrix(0.885783926429938 -0.0100476611221923 0.0100476611221923 0.885783926429938 353.127119187845 231.436588631606)" r="0.960000000000008" cx="0.960000000000008" cy="0.960000000000008" fill="#d7f6fe" fill-rule="evenodd" stroke="#d7f6fe" stroke-width="2.4" stroke-linecap="square" stroke-linejoin="bevel"/><ellipse id="shape7" transform="matrix(0.999935389090295 -0.0113425087472067 0.0113425087472067 0.999935389090295 347.192456929767 227.108505892687)" rx="0.840000000000003" ry="0.839999999999989" cx="0.840000000000003" cy="0.839999999999989" fill="#d7f6fe" fill-rule="evenodd" stroke="#d7f6fe" stroke-width="2.4" stroke-linecap="square" stroke-linejoin="bevel"/><ellipse id="shape8" transform="matrix(0.831378273618593 -0.00943052465553351 0.00943052465553351 0.831378273618593 345.618576380997 233.975108553859)" rx="1.08000000000001" ry="1.31999999999999" cx="1.08000000000001" cy="1.31999999999999" fill="none" stroke="#d7f6fe" stroke-width="2.4" stroke-linecap="square" stroke-linejoin="bevel"/><ellipse id="shape9" transform="matrix(0.999935389090295 -0.0113425087472067 0.0113425087472067 0.999935389090295 351.400136815924 238.341499645935)" rx="0.840000000000003" ry="0.719999999999999" cx="0.840000000000003" cy="0.719999999999999" fill="#d7f6fe" fill-rule="evenodd" stroke="#d7f6fe" stroke-width="2.4" stroke-linecap="square" stroke-linejoin="bevel"/><path id="shape10" transform="matrix(0.999999717429878 0 0 0.999999717429878 369.6107438584 180.26540144367)" fill="#98b2b9" fill-rule="evenodd" stroke="#98b2b9" stroke-width="2.4" stroke-linecap="square" stroke-linejoin="bevel" d="M3.04626 30.4306L0.248626 40.7378L13.5742 51.2412L3.16898 0C0.464155 8.70586 -2.29205 17.384 3.04626 30.4306Z"/><path id="shape111" transform="matrix(0.999999717429878 0 0 0.999999717429878 365.633227713729 156.877343806842)" fill="#98b2b9" fill-rule="evenodd" stroke="#98b2b9" stroke-width="2.4" stroke-linecap="square" stroke-linejoin="bevel" d="M0 0L8.01976 12.9859L6.92126 23.3871Z"/><path id="shape01" transform="matrix(0.999999858714929 0 0 0.999999858714929 356.160000542535 215.039969618059)" fill="#cff4fe" fill-rule="evenodd" stroke="#cff4fe" stroke-width="1.2" stroke-linecap="square" stroke-linejoin="bevel" d="M13.92 0L0 7.2L7.68 21.6L21.36 14.16L12.24 6.24L13.92 0"/><path id="shape1" transform="matrix(0.999999952904974 0 0 0.999999952904974 335.234903266474 -0.956441905109486)" fill="#01242d" fill-rule="evenodd" stroke="#01242d" stroke-width="2.4" stroke-linecap="square" stroke-linejoin="bevel" d="M143.949 63.3836C119.679 62.3226 77.9964 61.3531 50.6748 63.3984C46.1268 63.5029 -0.317094 65.3284 0.102685 61.3405C-1.7425 46.2875 21.6661 30.0923 39.221 28.4707C49.2401 27.8215 69.4027 33.2808 61.2445 31.7827C80.7291 18.5606 104.806 -14.6289 132.114 7.30713C148.541 20.5028 150.394 74.1651 133.143 62.667"/><path id="shape3" transform="matrix(0.999999952904974 0 0 0.999999952904974 225.148822758284 42.961229998387)" fill="#01242d" fill-rule="evenodd" stroke="#01242d" stroke-width="2.4" stroke-linecap="square" stroke-linejoin="bevel" d="M0 19.3842C20.6031 -10.6848 47.5907 1.90415 51.3204 6.95835C57.2322 12.1658 70.8044 -9.22268 95.9062 15.5118C96.0209 17.3118 93.6421 18.6565 92.7572 19.214C76.0293 23.9406 46.0734 21.7483 26.3075 21.999C19.2413 21.5797 12.3854 21.9205 5.33158 21.4268C4.11243 21.3415 -1.65923 20.5802 0.873017 18.9161"/>
</svg>
