<?xml version="1.0" standalone="no"?>
<!DOCTYPE svg PUBLIC "-//W3C//DTD SVG 20010904//EN" "http://www.w3.org/TR/2001/REC-SVG-20010904/DTD/svg10.dtd">
<!-- Created using Krita: https://krita.org -->
<svg xmlns="http://www.w3.org/2000/svg" 
    xmlns:xlink="http://www.w3.org/1999/xlink"
    xmlns:krita="http://krita.org/namespaces/svg/krita"
    xmlns:sodipodi="http://sodipodi.sourceforge.net/DTD/sodipodi-0.dtd"
    width="460.8pt"
    height="259.2pt"
    viewBox="0 0 460.8 259.2">
<defs/>
<path id="shape0" transform="translate(-42.842576044736, 168.212036720224)" fill="#f4a08a" fill-rule="evenodd" stroke="#f4a08a" stroke-width="2.4" stroke-linecap="square" stroke-linejoin="bevel" d="M25.6219 6.64791C43.8373 -20.6752 268.641 39.8488 218.376 121.947C196.38 157.873 49.4586 139.103 22.0789 107.511C7.92841 91.1836 -5.73651 58.4846 2.47934 36.5751C5.20221 29.3139 9.94391 16.9706 16.6136 12.3017C20.1617 9.81792 30.7574 2.45464 27.6949 5.51718" sodipodi:nodetypes="cccccc"/><path id="shape1" transform="translate(142.018864160044, -21.9417805148619)" fill="#f4a08a" fill-rule="evenodd" stroke="#f4a08a" stroke-width="2.4" stroke-linecap="square" stroke-linejoin="bevel" d="M84.8124 0.767161C84.8124 3.69277 90.6437 -0.256445 93.5568 0.0133247C102.9 0.878556 112.033 1.32458 120.657 5.70481C143.242 17.1765 163.852 37.331 167.206 63.8254C169.242 79.9076 159.92 101.975 148.812 113.277C75.4537 187.922 -109.321 33.7184 88.8454 2.01101" sodipodi:nodetypes="cccccc"/><path id="shape2" transform="translate(372.48473800259, 72.6962892217881)" fill="#f4a08a" fill-rule="evenodd" stroke="#f4a08a" stroke-width="2.4" stroke-linecap="square" stroke-linejoin="bevel" d="M122.785 50.3376C120.722 48.9621 118.265 34.228 116.453 31.1525C95.0327 -5.19682 53.6103 -8.73486 22.3372 15.322C8.04851 26.3135 -1.70893 42.0551 0.250017 60.6651C6.78444 122.742 115.327 138.786 125.461 72.9149C125.812 70.6313 126.055 48.7922 122.596 48.7922" sodipodi:nodetypes="cccccc"/>
</svg>
