<?xml version="1.0" standalone="no"?>
<!DOCTYPE svg PUBLIC "-//W3C//DTD SVG 20010904//EN" "http://www.w3.org/TR/2001/REC-SVG-20010904/DTD/svg10.dtd">
<!-- Created using Krita: https://krita.org -->
<svg xmlns="http://www.w3.org/2000/svg"
    xmlns:xlink="http://www.w3.org/1999/xlink"
    xmlns:krita="http://krita.org/namespaces/svg/krita"
    xmlns:sodipodi="http://sodipodi.sourceforge.net/DTD/sodipodi-0.dtd"
    width="193.92pt"
    height="55.44pt"
    viewBox="0 0 193.92 55.44">
<defs/>
<path id="shape1" transform="matrix(0.905825360239102 0 0 0.905825360239102 81.4606587937138 2.99028585706506)" fill="#01242d" fill-rule="evenodd" stroke="#01242d" stroke-width="2.4" stroke-linecap="square" stroke-linejoin="bevel" d="M6.06059 39.248C2.4564 39.248 0.222319 29.6541 0.0647743 27.1784C-2.47532 -12.7371 70.4971 -5.55824 77.1278 28.4243C84.2497 64.9241 33.1224 43.6125 19.4019 40.2862C14.8004 39.1707 5.46646 44.0548 5.23 39.3259"/><path id="shape2" transform="matrix(0.905825360239102 0 0 0.905825360239102 58.0462163873701 11.0569399743752)" fill="#01242d" fill-rule="evenodd" stroke="#01242d" stroke-width="2.4" stroke-linecap="square" stroke-linejoin="bevel" d="M28.2757 39.557L0 27.4493L4.96712 23.2566L1.85241 20.064L8.08184 14.4316C12.1129 6.23961 18.1451 0.553707 28.2757 0C36.2776 1.52223 41.2327 2.05135 49.8448 17.6242L56.2559 22.6077L49.2219 27.176L54.2369 31.0614Z"/><path id="shape3" transform="matrix(0.905825360239102 0 0 0.905825360239102 86.4743101307695 13.5961923145872)" fill="#01242d" fill-rule="evenodd" stroke="#01242d" stroke-width="2.4" stroke-linecap="square" stroke-linejoin="bevel" d="M0 3.79642L25.054 0L14.6636 9.24446Z"/><path id="shape4" transform="matrix(0.905825360239102 0 0 0.905825360239102 61.534568004998 13.4316101780541)" fill="#01242d" fill-rule="evenodd" stroke="#01242d" stroke-width="2.4" stroke-linecap="square" stroke-linejoin="bevel" d="M20.9352 3.27116L0 0L6.59279 10.7199Z"/><path id="shape5" transform="matrix(0.905825360239102 0 0 0.905825360239102 59.1130797929535 37.1826013806916)" fill="#01242d" fill-rule="evenodd" stroke="#01242d" stroke-width="2.4" stroke-linecap="square" stroke-linejoin="bevel" d="M9.07722 0.0233418C1.01924 0.0233418 -4.2099 8.33573 4.52561 12.5578C15.9907 18.0993 38.4791 15.3353 19.2191 4.32989C15.6259 2.2767 4.65705 2.92631 7.58336 0"/><path id="shape6" transform="matrix(0.905825360239102 0 0 0.905825360239102 85.1856523031335 35.2639967082638)" fill="#01242d" fill-rule="evenodd" stroke="#01242d" stroke-width="2.4" stroke-linecap="square" stroke-linejoin="bevel" d="M9.8094 6.3896C12.7828 3.41625 -1.3094 10.4805 0.0993153 14.4425C2.83936 22.1488 17.5857 20.175 23.2891 16.7183C48.3572 1.52527 8.91075 -6.71543 8.91075 6.91479"/><path id="shape7" transform="matrix(0.905825360239102 0 0 0.905825360239102 149.082885157011 25.9363144355355)" fill="#01242d" fill-rule="evenodd" stroke="#01242d" stroke-width="2.4" stroke-linecap="square" stroke-linejoin="bevel" d="M4.1614 2.28573C4.1614 1.58127 8.1332 0.709976 8.71649 0.575885C21.4367 -2.34832 47.2037 5.94557 35.7131 23.5919C35.56 23.8271 35.3512 24.0874 35.152 24.2866C32.6439 26.7947 26.9438 27.8744 23.5038 27.5059C19.4809 27.0748 12.3451 22.4739 15.3154 17.4071C18.547 11.8945 24.1235 17.8648 26.6162 14.7489C34.1868 5.4094 2.48389 10.3561 1.79899 7.63309C-1.63031 4.62874 0.47273 3.61089 2.89434 2.70395"/><ellipse id="shape8" transform="matrix(0.905825360239102 0 0 0.905825360239102 42.0273067684547 38.2330188396613)" rx="4.44" ry="5.42219747703634" cx="4.44" cy="5.42219747703634" fill="#cff4fe" stroke="#01242d" stroke-width="2.4" stroke-linecap="square" stroke-linejoin="bevel"/><ellipse id="shape9" transform="matrix(0.905825360239102 0 0 0.905825360239102 27.7966581631095 39.9777647950597)" rx="6.24000000000001" ry="6.23999999999999" cx="6.24000000000001" cy="6.23999999999999" fill="#cff4fe" stroke="#01242d" stroke-width="2.4" stroke-linecap="square" stroke-linejoin="bevel"/><path id="shape10" transform="matrix(0.845309733334614 0.325531930817951 -0.325531930817951 0.845309733334614 39.7615480191496 41.8183962753111)" fill="none" stroke="#01242d" stroke-width="2.4" stroke-linecap="square" stroke-linejoin="miter" stroke-miterlimit="2" d="M0 1.29522L2.46501 0"/><path id="shape11" transform="matrix(0.905825360239102 0 0 0.905825360239102 72.9523985591512 26.4913207447726)" fill="none" stroke="#cff4fe" stroke-width="1.2" stroke-linecap="square" stroke-linejoin="miter" stroke-miterlimit="2" d="M0 4.70012C1.85385 2.18246 3.92872 0.877337 5.9943 0"/><path id="shape12" transform="matrix(0.905825360239102 0 0 0.905825360239102 88.8372829751865 27.3277368230461)" fill="none" stroke="#cff4fe" stroke-width="1.2" stroke-linecap="square" stroke-linejoin="miter" stroke-miterlimit="2" d="M0 0C2.98893 0.959296 4.73169 2.4638 6.41058 3.99623"/><path id="shape13" transform="matrix(0.905825360239102 0 0 0.905825360239102 81.1862108732531 34.8143245734852)" fill="#cff4fe" stroke="#cff4fe" stroke-width="1.2" stroke-linecap="square" stroke-linejoin="bevel" d="M2.72993 3.51184L0 0L4.67737 0.0605492Z"/><path id="shape0" transform="matrix(0.905825402898973 0 0 0.905825402898973 8.43930063955086 44.2315733060642)" fill="none" stroke="#01242d" stroke-width="1.2" stroke-linecap="square" stroke-linejoin="bevel" d="M21.6 0L3.12 2.16L0 6"/><path id="shape11" transform="matrix(0.905825402898973 0 0 0.905825402898973 20.8309921512088 43.1445828225855)" fill="none" stroke="#01242d" stroke-width="1.2" stroke-linecap="square" stroke-linejoin="bevel" d="M0 4.56L2.64 0.72L8.4 0"/><path id="shape21" transform="matrix(0.905825402898973 0 0 0.905825402898973 70.6151562945363 40.5358056622364)" fill="none" stroke="#cff4fe" stroke-width="1.2" stroke-linecap="square" stroke-linejoin="miter" stroke-miterlimit="2" d="M0 0C2.07184 1.97457 23.7887 5.88585 11.04 12"/><path id="shape31" transform="matrix(0.905825402898973 0 0 0.905825402898973 84.5926791990383 40.3184075655407)" fill="none" stroke="#cff4fe" stroke-width="1.2" stroke-linecap="square" stroke-linejoin="miter" stroke-miterlimit="2" d="M2.5693 12.72C-3.84554 7.07121 2.43463 5.55694 13.8493 0"/><path id="shape41" transform="matrix(0.905825402898973 0 0 0.905825402898973 113.877377536991 34.6660570514511)" fill="none" stroke="#cff4fe" stroke-width="1.2" stroke-linecap="square" stroke-linejoin="miter" stroke-miterlimit="2" d="M0 10.56C2.04592 7.16146 3.82958 3.65151 5.28 0"/><path id="shape51" transform="matrix(0.905825402898973 0 0 0.905825402898973 121.732055837959 28.1441141505785)" fill="none" stroke="#cff4fe" stroke-width="1.2" stroke-linecap="square" stroke-linejoin="miter" stroke-miterlimit="2" d="M14.1287 0C-5.65905 7.24493 -2.63922 23.9848 10.7687 23.04"/>
</svg>
