<?xml version="1.0" standalone="no"?>
<!DOCTYPE svg PUBLIC "-//W3C//DTD SVG 20010904//EN" "http://www.w3.org/TR/2001/REC-SVG-20010904/DTD/svg10.dtd">
<!-- Created using Krita: https://krita.org -->
<svg xmlns="http://www.w3.org/2000/svg" 
    xmlns:xlink="http://www.w3.org/1999/xlink"
    xmlns:krita="http://krita.org/namespaces/svg/krita"
    xmlns:sodipodi="http://sodipodi.sourceforge.net/DTD/sodipodi-0.dtd"
    width="75.6pt"
    height="72.72pt"
    viewBox="0 0 75.6 72.72">
<defs/>
<path id="shape0" transform="matrix(0.999999966427308 0 0 0.999999966427308 7.72987802265717 1.29460116458248)" fill="#02485a" fill-rule="evenodd" stroke="#02485a" stroke-width="1.44" stroke-linecap="square" stroke-linejoin="bevel" d="M20.3501 15.2654C14.741 4.82749 9.86623 -0.257627 5.72593 0.0100384C1.21306 3.59553 -0.632211 14.4407 0.190124 32.5454C11.6074 23.759 12.2631 20.8642 20.3501 15.2654Z"/><path id="shape1" transform="matrix(0.999999966427308 0 0 0.999999966427308 9.97204194320375 5.63044113201328)" fill="#ffffff" fill-rule="evenodd" stroke="#ffffff" stroke-width="1.44" stroke-linecap="square" stroke-linejoin="bevel" d="M10.2959 13.9391C7.594 3.37938 4.954 -1.18062 2.37592 0.259116C-0.202159 1.69885 -0.682159 9.85885 0.935922 24.7391C0.28711 24.117 3.40711 20.517 10.2959 13.9391Z"/><path id="shape2" transform="matrix(-0.999999966427308 0 0 0.999999966427308 67.1478930677688 1.72730050810165)" fill="#02485a" fill-rule="evenodd" stroke="#02485a" stroke-width="1.44" stroke-linecap="square" stroke-linejoin="bevel" d="M20.443 15.2654C14.8338 4.82749 9.95906 -0.257627 5.81876 0.0100384C1.24251 4.26707 -0.634442 15.448 0.187893 33.5527C11.6051 24.7663 12.356 20.8642 20.443 15.2654Z"/><path id="shape3" transform="matrix(-0.999999966427308 0 0 0.999999966427308 64.8128989861525 6.06314047553245)" fill="#ffffff" fill-rule="evenodd" stroke="#ffffff" stroke-width="1.44" stroke-linecap="square" stroke-linejoin="bevel" d="M10.2959 13.9391C7.594 3.37938 4.954 -1.18062 2.37592 0.259116C-0.202159 1.69885 -0.682159 9.85885 0.935922 24.7391C0.28711 24.117 3.40711 20.517 10.2959 13.9391Z"/><ellipse id="shape01" transform="matrix(0.999999935258652 0 0 0.999999935258652 5.76000437850754 15.8399957429309)" rx="31.68" ry="28.08" cx="31.68" cy="28.08" fill="#02485a" fill-rule="evenodd" stroke="#02485a" stroke-width="0.72" stroke-linecap="square" stroke-linejoin="bevel"/><path id="shape02" transform="matrix(0.999999966427308 0 0 0.999999966427308 0.720002770754276 46.4399984408842)" fill="#02485a" fill-rule="evenodd" stroke="#02485a" stroke-width="2.16" stroke-linecap="square" stroke-linejoin="bevel" d="M6.17936 0L0 4.68L3.6 6.12L0 9.72L16.56 17.64L19.44 13.32L6.17936 0"/><path id="shape11" transform="matrix(-0.999999966427308 0 0 0.999999966427308 74.5200002930896 46.2599984469272)" fill="#02485a" fill-rule="evenodd" stroke="#02485a" stroke-width="2.16" stroke-linecap="square" stroke-linejoin="bevel" d="M6.17936 0L0 4.68L3.6 6.12L0 9.72L16.92 17.82L19.44 13.32L6.17936 0"/><path id="shape03" transform="matrix(0.999999966427308 0 0 0.999999966427308 32.4000016682201 34.3674052124008)" fill="none" stroke="#ffffff" stroke-width="2.16" stroke-linecap="square" stroke-linejoin="bevel" d="M0 1.5426C3.5622 -1.78163 10.2126 1.24262 10.08 1.6326"/><path id="shape12" transform="matrix(0.999999966427308 0 0 0.999999966427308 60.4800007644502 35.2799988155554)" fill="none" stroke="#ffffff" stroke-width="2.16" stroke-linecap="square" stroke-linejoin="miter" stroke-miterlimit="2" d="M0 3.6L6.48 0"/><path id="shape21" transform="matrix(0.999999966427308 0 0 0.999999966427308 7.92000252903089 34.5599988397278)" fill="none" stroke="#ffffff" stroke-width="2.16" stroke-linecap="square" stroke-linejoin="miter" stroke-miterlimit="2" d="M6.48 3.6L0 0"/><ellipse id="shape31" transform="matrix(0.999999966427308 0 0 0.999999966427308 15.4800012766016 28.7999996615872)" rx="8.28" ry="8.64" cx="8.28" cy="8.64" fill="#ffffff" stroke="#ffffff" stroke-width="2.16" stroke-linecap="square" stroke-linejoin="bevel"/><ellipse id="shape04" transform="matrix(0.999999950306031 0 0 0.999999950306031 42.8400014901567 28.7999991723942)" rx="8.28" ry="8.64" cx="8.28" cy="8.64" fill="#ffffff" stroke="#ffffff" stroke-width="2.16" stroke-linecap="square" stroke-linejoin="bevel"/><path id="shape05" transform="matrix(0.999999966427308 0 0 0.999999966427308 20.1600021181012 35.2799988155554)" fill="#55abc2" fill-rule="evenodd" stroke="#02485a" stroke-width="2.16" stroke-linecap="square" stroke-linejoin="miter" stroke-miterlimit="2" d="M0 5.76L7.92 0"/><path id="shape13" transform="matrix(0.999999966427308 0 0 0.999999966427308 46.8000012237246 35.2799988155554)" fill="#55abc2" fill-rule="evenodd" stroke="#02485a" stroke-width="2.16" stroke-linecap="square" stroke-linejoin="miter" stroke-miterlimit="2" d="M0 0L7.92 5.76"/><ellipse id="shape06" transform="matrix(0.999999966427308 0 0 0.999999966427308 33.4800016709129 47.5199984046256)" rx="3.96" ry="2.88" cx="3.96" cy="2.88" fill="#ffffff" fill-rule="evenodd" stroke="#ffffff" stroke-width="2.16" stroke-linecap="square" stroke-linejoin="bevel"/><path id="shape07" transform="matrix(0.999999966427308 0 0 0.999999966427308 37.440001537965 53.9999981870746)" fill="none" stroke="#ffffff" stroke-width="2.16" stroke-linecap="square" stroke-linejoin="miter" stroke-miterlimit="2" d="M0 0L0 6.64004"/><path id="shape14" transform="matrix(0.999999966427308 0 0 0.999999966427308 30.960001755516 59.7599979936959)" fill="none" stroke="#ffffff" stroke-width="2.16" stroke-linecap="square" stroke-linejoin="miter" stroke-miterlimit="2" d="M0 0C0.715496 2.80866 3.23263 2.71294 6.48 1.44"/><path id="shape22" transform="matrix(0.999999966427308 0 0 0.999999966427308 37.440001537965 59.7599979936959)" fill="none" stroke="#ffffff" stroke-width="2.16" stroke-linecap="square" stroke-linejoin="miter" stroke-miterlimit="2" d="M0 1.44C3.91843 2.86803 6.04275 2.11665 6.48 0"/>
</svg>
